<svg xmlns="http://www.w3.org/2000/svg" class="svg-logo" width="2400" height="2400" viewBox="0 0 630 430" style="height: auto;"><rect width="630" height="630" y="-100" rx="0" ry="0" fill="transparent" fill-opacity="0"></rect><g data-element="wrapper" transform="translate(47.4630548505895 32.39543134973511) scale(0.8493236353949539)"><g data-element="container" transform="translate(149.57534581014556 49.575338002068094) scale(0.5514155139661815)"><g ><path id="fill_x5F_1_121_" d="M597.096,300c0-27.032-21.991-48.3-45.377-68.615
	c9.867-29.479,18.242-58.127,5.601-79.978c-13.027-22.514-42.409-29.79-72.858-35.872c-6.082-30.448-13.356-59.831-35.871-72.857
	c-21.852-12.642-50.497-4.266-79.978,5.601C348.299,24.896,327.03,2.903,300,2.903s-48.299,21.993-68.613,45.378
	c-29.481-9.868-58.13-18.243-79.978-5.6c-22.515,13.026-29.789,42.409-35.871,72.857c-30.449,6.082-59.831,13.358-72.858,35.872
	c-12.641,21.851-4.266,50.498,5.601,79.977C24.897,251.701,2.904,272.969,2.904,300s21.994,48.3,45.377,68.615
	c-9.867,29.479-18.242,58.127-5.601,79.978c13.027,22.514,42.409,29.79,72.858,35.872c6.082,30.448,13.356,59.831,35.871,72.857
	c21.852,12.642,50.497,4.267,79.978-5.601c20.314,23.385,41.583,45.378,68.613,45.378s48.299-21.993,68.613-45.378
	c29.481,9.868,58.13,18.243,79.978,5.6c22.514-13.026,29.789-42.409,35.874-72.857c30.446-6.082,59.831-13.358,72.855-35.872
	c12.641-21.851,4.266-50.498-5.601-79.977C575.103,348.3,597.096,327.032,597.096,300z" fill="transparent" fill-opacity="0"></path>
<path id="frame_x5F_1_121_" d="M600,300.001c0-27.707-21.648-49.217-44.918-69.532c9.614-28.914,17.731-58.079,4.75-80.517
	c-13.363-23.095-42.794-30.797-72.904-36.88c-6.085-30.113-13.788-59.543-36.882-72.906c-22.434-12.986-51.604-4.866-80.518,4.752
	C349.215,21.647,327.708-0.002,300-0.002s-49.218,21.648-69.535,44.919c-28.911-9.615-58.074-17.737-80.512-4.749
	c-23.097,13.362-30.8,42.792-36.882,72.904c-30.113,6.083-59.541,13.785-72.904,36.882c-12.98,22.435-4.864,51.6,4.75,80.514
	C21.648,250.785,0,272.295,0,300.001c0,27.707,21.648,49.217,44.918,69.531c-9.614,28.914-17.73,58.081-4.75,80.516
	c13.363,23.097,42.791,30.797,72.904,36.881c6.085,30.112,13.785,59.543,36.882,72.905c22.434,12.986,51.601,4.865,80.518-4.753
	c20.314,23.271,41.82,44.921,69.529,44.921c27.705,0,49.215-21.646,69.532-44.916c18.162,6.04,36.417,11.487,53.046,11.487
	c9.846,0,19.124-1.911,27.468-6.738c23.097-13.362,30.8-42.793,36.882-72.906c30.113-6.082,59.541-13.785,72.904-36.88
	c12.98-22.438,4.864-51.605-4.75-80.516C578.352,349.218,600,327.709,600,300.001z M554.808,152.862
	c11.461,19.81,4.692,45.699-4.476,73.485c-1.147-0.991-2.3-1.982-3.446-2.97c-16.504-14.192-32.095-27.598-40.661-42.406
	c-9.023-15.594-13.289-37.372-17.416-58.435c-0.216-1.096-0.431-2.195-0.647-3.293C516.15,125.002,543.02,132.488,554.808,152.862z
	 M481.999,481.999c-1.883,0.373-3.77,0.743-5.65,1.112c-21.531,4.217-43.796,8.579-60.229,18.088
	c-15.659,9.059-29.376,25.011-43.901,41.903c-1.504,1.748-3.012,3.5-4.525,5.248c-1.427-0.48-2.854-0.959-4.288-1.444
	c-21.328-7.201-43.383-14.648-63.407-14.648s-42.079,7.447-63.407,14.648c-1.433,0.484-2.861,0.963-4.288,1.443
	c-1.51-1.747-3.018-3.498-4.522-5.246c-14.525-16.889-28.245-32.844-43.904-41.903c-16.433-9.506-38.694-13.868-60.222-18.088
	c-1.883-0.369-3.77-0.739-5.653-1.112c-0.373-1.885-0.743-3.771-1.113-5.654c-4.22-21.528-8.582-43.79-18.088-60.223
	c-9.06-15.659-25.014-29.379-41.903-43.901c-1.748-1.504-3.499-3.012-5.246-4.525c0.478-1.427,0.959-2.853,1.443-4.288
	c7.201-21.331,14.645-43.383,14.645-63.407c0-20.024-7.444-42.076-14.645-63.407c-0.484-1.435-0.965-2.861-1.443-4.288
	c1.748-1.513,3.499-3.021,5.246-4.525c16.889-14.525,32.841-28.242,41.9-43.901c9.51-16.433,13.871-38.698,18.088-60.226
	c0.37-1.882,0.74-3.768,1.113-5.654c1.886-0.374,3.77-0.744,5.653-1.112c21.528-4.217,43.793-8.579,60.226-18.088
	c15.659-9.059,29.376-25.011,43.901-41.903c1.504-1.748,3.012-3.499,4.522-5.246c1.43,0.48,2.857,0.961,4.294,1.445
	c21.328,7.198,43.38,14.645,63.404,14.645s42.079-7.447,63.407-14.648c1.433-0.484,2.861-0.964,4.285-1.443
	c1.513,1.748,3.021,3.498,4.525,5.247c14.525,16.889,28.245,32.844,43.904,41.903c16.433,9.509,38.698,13.871,60.229,18.088
	c1.88,0.368,3.764,0.738,5.647,1.112c0.373,1.884,0.743,3.77,1.113,5.651c4.22,21.531,8.582,43.793,18.091,60.229
	c9.059,15.659,25.011,29.376,41.9,43.901c1.748,1.504,3.499,3.012,5.246,4.525c-0.478,1.427-0.959,2.853-1.443,4.288
	c-7.201,21.331-14.645,43.383-14.645,63.407c0,20.024,7.444,42.076,14.645,63.404c0.484,1.435,0.965,2.862,1.446,4.29
	c-1.748,1.513-3.502,3.022-5.249,4.526c-16.889,14.522-32.841,28.239-41.9,43.898c-9.509,16.436-13.871,38.698-18.088,60.229
	C482.742,478.229,482.372,480.114,481.999,481.999z M447.136,45.191c20.375,11.788,27.859,38.659,33.618,66.65
	c-1.097-0.216-2.195-0.433-3.289-0.648c-21.063-4.127-42.844-8.394-58.435-17.416c-14.808-8.569-28.217-24.161-42.412-40.664
	c-0.986-1.147-1.979-2.297-2.968-3.445C401.442,40.502,427.322,33.734,447.136,45.191z M300,5.806
	c24.527,0,44.582,19.539,63.564,41.111c-0.672,0.227-1.344,0.452-2.016,0.679c-20.884,7.05-42.48,14.34-61.548,14.34
	s-40.664-7.29-61.548-14.34c-0.672-0.227-1.344-0.452-2.016-0.679C255.418,25.345,275.47,5.806,300,5.806z M152.864,45.194
	c19.805-11.455,45.692-4.69,73.48,4.474c-0.989,1.149-1.982,2.298-2.968,3.445c-14.192,16.507-27.598,32.098-42.406,40.664
	c-15.591,9.022-37.372,13.289-58.432,17.416c-1.097,0.215-2.198,0.432-3.295,0.648C125.001,83.851,132.488,56.982,152.864,45.194z
	 M45.192,152.865c11.788-20.376,38.658-27.863,66.646-33.622c-0.216,1.099-0.431,2.199-0.647,3.296
	c-4.127,21.059-8.394,42.84-17.416,58.432c-8.566,14.808-24.157,28.214-40.661,42.406c-1.147,0.987-2.299,1.979-3.446,2.97
	C40.501,198.561,33.732,172.672,45.192,152.865z M5.807,300.001c0-24.529,19.537-44.582,41.108-63.563
	c0.225,0.671,0.453,1.344,0.678,2.015c7.05,20.884,14.34,42.48,14.34,61.548s-7.29,40.664-14.34,61.548
	c-0.225,0.67-0.453,1.344-0.678,2.015C25.344,344.584,5.807,324.531,5.807,300.001z M45.192,447.138
	c-11.461-19.807-4.691-45.698,4.476-73.484c1.15,0.991,2.3,1.982,3.446,2.969c16.504,14.195,32.095,27.601,40.664,42.409
	c9.019,15.591,13.285,37.369,17.413,58.428c0.216,1.097,0.432,2.197,0.65,3.296C83.85,474.998,56.98,467.51,45.192,447.138z
	 M152.864,554.809c-20.372-11.788-27.86-38.658-33.618-66.648c1.097,0.216,2.198,0.434,3.295,0.649
	c21.06,4.127,42.837,8.394,58.429,17.413c14.808,8.569,28.217,24.161,42.412,40.664c0.986,1.148,1.976,2.296,2.968,3.444
	C198.558,559.495,172.665,566.263,152.864,554.809z M300,594.194c-24.527,0-44.582-19.539-63.564-41.111
	c0.672-0.227,1.344-0.452,2.016-0.678c20.884-7.05,42.48-14.34,61.548-14.34s40.664,7.29,61.548,14.34
	c0.672,0.227,1.347,0.451,2.019,0.678C344.585,574.655,324.53,594.194,300,594.194z M447.136,554.809
	c-19.808,11.456-45.695,4.687-73.48-4.475c0.99-1.149,1.982-2.299,2.969-3.447c14.192-16.507,27.597-32.098,42.406-40.664
	c15.591-9.022,37.372-13.289,58.435-17.416c1.097-0.215,2.195-0.432,3.292-0.648C474.999,516.151,467.512,543.021,447.136,554.809z
	 M554.808,447.138c-11.787,20.374-38.654,27.86-66.646,33.619c0.216-1.098,0.432-2.197,0.647-3.293
	c4.128-21.063,8.394-42.844,17.416-58.435c8.566-14.808,24.157-28.214,40.661-42.406c1.147-0.987,2.299-1.978,3.446-2.97
	C559.499,401.439,566.268,427.328,554.808,447.138z M553.084,363.564c-0.225-0.671-0.453-1.344-0.678-2.014
	c-7.05-20.884-14.34-42.48-14.34-61.548s7.29-40.664,14.34-61.548c0.225-0.67,0.453-1.344,0.678-2.015
	c21.571,18.98,41.108,39.034,41.108,63.563C594.193,324.531,574.656,344.582,553.084,363.564z" fill="#000000" fill-opacity="1"></path></g></g><g ><g data-element="icon" transform="scale(0.13438978821345618) translate(2046.2864303588867 1008.186358655081)"><path id="color_x5F_1_14_" d="M542.822,200.516l11.518-24.956l-6.395-50.094    c-0.439-29.075-24.227-52.593-53.404-52.593H290.978c-25.903,0-47.55,18.538-52.391,43.041H100.734    c-29.177,0-52.965,23.518-53.404,52.593l-6.395,50.094l11.518,24.956l-4.257,12.445L0,357.77h47.324v36.279H94.26    c0,31.612-42.624,36.452-42.624,36.452v10.286c0,39.928,35.67,39.928,49.099,39.928h152.199    c27.295,39.674,60.585,41.689,60.585,41.689c-5.073-7.054-14.155-32.244-15.191-43.761c29.265,0,52.86-10.499,72.232-40.97h123.983    c25.237,0,49.098-28.161,49.098-60.08v-10.284c0,0-28.608-6.143-36.794-20.332h41.107v-32.248h47.324L542.822,200.516z     M99.74,246.421c0-11.49,9.315-20.805,20.805-20.805c11.49,0,20.805,9.314,20.805,20.805c0,11.49-9.315,20.805-20.805,20.805    C109.055,267.226,99.74,257.911,99.74,246.421z M185.271,267.226c-11.49,0-20.805-9.314-20.805-20.805    c0-11.49,9.315-20.805,20.805-20.805c11.49,0,20.805,9.314,20.805,20.805C206.075,257.911,196.761,267.226,185.271,267.226z     M523.766,290.543v36.279H469.99c0,0,12.181,47.125,48.46,58.124c-3.529,16.401-15.59,28.541-23.908,28.541H356.466    c0,0-13.758,35.352-36.212,39.567c9.353-14.293,12.345-39.567,12.345-39.567h-41.621c-16.114,0-29.224-13.11-29.224-29.224V263.579    c-3.346,2.297-7.392,3.647-11.757,3.647c-4.666,0-8.958-1.555-12.428-4.149c-5.076-3.794-8.376-9.832-8.376-16.656    c0-6.824,3.3-12.862,8.376-16.656c3.47-2.594,7.763-4.149,12.428-4.149c4.365,0,8.412,1.35,11.757,3.647v-102.98    c0-16.114,13.11-29.224,29.224-29.224h203.564c16.114,0,29.224,13.11,29.224,29.224v0.769l5.704,44.681l-12.667,27.446    l40.258,91.365H523.766z M352.974,194.25c0,11.49-9.315,20.805-20.805,20.805c-11.49,0-20.805-9.314-20.805-20.805    c0-11.49,9.315-20.805,20.805-20.805C343.66,173.445,352.974,182.76,352.974,194.25z M417.7,194.25    c0,11.49-9.315,20.805-20.805,20.805c-11.49,0-20.805-9.314-20.805-20.805c0-11.49,9.314-20.805,20.805-20.805    C408.385,173.445,417.7,182.76,417.7,194.25z M482.425,194.25c0,11.49-9.315,20.805-20.805,20.805    c-11.49,0-20.805-9.314-20.805-20.805c0-11.49,9.315-20.805,20.805-20.805C473.111,173.445,482.425,182.76,482.425,194.25z" fill="#000000" fill-opacity="1"></path></g><path d="M249.38 226.89Q249.38 227.21 249.16 227.44Q248.94 227.66 248.62 227.66L248.62 227.66L227.62 227.66Q227.30 227.66 227.30 227.98L227.30 227.98L227.30 237.90Q227.30 238.22 227.62 238.22L227.62 238.22L241.38 238.22Q241.70 238.22 241.93 238.44Q242.15 238.67 242.15 238.99L242.15 238.99L242.15 245.20Q242.15 245.52 241.93 245.74Q241.70 245.96 241.38 245.96L241.38 245.96L227.62 245.96Q227.30 245.96 227.30 246.28L227.30 246.28L227.30 256.65Q227.30 256.97 227.62 256.97L227.62 256.97L248.62 256.97Q248.94 256.97 249.16 257.20Q249.38 257.42 249.38 257.74L249.38 257.74L249.38 263.95Q249.38 264.27 249.16 264.49Q248.94 264.72 248.62 264.72L248.62 264.72L219.05 264.72Q218.73 264.72 218.50 264.49Q218.28 264.27 218.28 263.95L218.28 263.95L218.28 220.68Q218.28 220.36 218.50 220.14Q218.73 219.92 219.05 219.92L219.05 219.92L248.62 219.92Q248.94 219.92 249.16 220.14Q249.38 220.36 249.38 220.68L249.38 220.68L249.38 226.89ZM284.45 240.65Q285.61 243.92 285.61 248.33L285.61 248.33Q285.61 252.75 284.39 256.33L284.39 256.33Q282.92 260.43 279.75 262.83Q276.58 265.23 271.91 265.23L271.91 265.23Q267.30 265.23 264.74 262.03L264.74 262.03Q264.62 261.84 264.49 261.90Q264.36 261.96 264.36 262.16L264.36 262.16L264.36 275.85Q264.36 276.17 264.13 276.40Q263.91 276.62 263.59 276.62L263.59 276.62L256.10 276.62Q255.78 276.62 255.56 276.40Q255.34 276.17 255.34 275.85L255.34 275.85L255.34 232.59Q255.34 232.27 255.56 232.04Q255.78 231.82 256.10 231.82L256.10 231.82L263.59 231.82Q263.91 231.82 264.13 232.04Q264.36 232.27 264.36 232.59L264.36 232.59L264.36 234.70Q264.36 234.89 264.49 234.92Q264.62 234.96 264.74 234.83L264.74 234.83Q267.43 231.31 272.17 231.31L272.17 231.31Q276.58 231.31 279.81 233.77Q283.05 236.24 284.45 240.65L284.45 240.65ZM274.66 254.99Q276.26 252.49 276.26 248.20L276.26 248.20Q276.26 244.17 274.92 241.80L274.92 241.80Q273.45 239.05 270.18 239.05L270.18 239.05Q267.24 239.05 265.77 241.80L265.77 241.80Q264.42 244.11 264.42 248.27L264.42 248.27Q264.42 252.56 265.83 254.92L265.83 254.92Q267.30 257.48 270.18 257.48L270.18 257.48Q273.06 257.48 274.66 254.99L274.66 254.99ZM296.30 228.11Q294.12 228.11 292.68 226.67Q291.24 225.23 291.24 223.05L291.24 223.05Q291.24 220.81 292.65 219.40Q294.06 218.00 296.30 218.00L296.30 218.00Q298.54 218.00 299.94 219.40Q301.35 220.81 301.35 223.05L301.35 223.05Q301.35 225.23 299.91 226.67Q298.47 228.11 296.30 228.11L296.30 228.11ZM292.45 264.72Q292.13 264.72 291.91 264.49Q291.69 264.27 291.69 263.95L291.69 263.95L291.69 232.52Q291.69 232.20 291.91 231.98Q292.13 231.76 292.45 231.76L292.45 231.76L299.94 231.76Q300.26 231.76 300.49 231.98Q300.71 232.20 300.71 232.52L300.71 232.52L300.71 263.95Q300.71 264.27 300.49 264.49Q300.26 264.72 299.94 264.72L299.94 264.72L292.45 264.72ZM321.70 265.23Q316.84 265.23 313.22 263.40Q309.61 261.58 307.62 258.28Q305.64 254.99 305.64 250.64L305.64 250.64L305.64 246.60Q305.64 246.28 305.86 246.06Q306.09 245.84 306.41 245.84L306.41 245.84L313.89 245.84Q314.21 245.84 314.44 246.06Q314.66 246.28 314.66 246.60L314.66 246.60L314.66 250.64Q314.66 253.71 316.55 255.60Q318.44 257.48 321.70 257.48L321.70 257.48Q324.84 257.48 326.86 255.60Q328.87 253.71 328.87 250.64L328.87 250.64L328.87 220.68Q328.87 220.36 329.10 220.14Q329.32 219.92 329.64 219.92L329.64 219.92L337.06 219.92Q337.38 219.92 337.61 220.14Q337.83 220.36 337.83 220.68L337.83 220.68L337.83 250.64Q337.83 254.99 335.78 258.28Q333.74 261.58 330.09 263.40Q326.44 265.23 321.70 265.23L321.70 265.23ZM359.59 265.23Q354.22 265.23 350.38 262.41Q346.54 259.60 345.13 254.73L345.13 254.73Q344.23 251.72 344.23 248.20L344.23 248.20Q344.23 244.43 345.13 241.42L345.13 241.42Q346.60 236.68 350.44 234.00Q354.28 231.31 359.66 231.31L359.66 231.31Q364.90 231.31 368.62 233.96Q372.33 236.62 373.86 241.36L373.86 241.36Q374.89 244.56 374.89 248.08L374.89 248.08Q374.89 251.53 373.99 254.54L373.99 254.54Q372.58 259.53 368.78 262.38Q364.97 265.23 359.59 265.23L359.59 265.23ZM359.59 257.48Q361.70 257.48 363.18 256.20Q364.65 254.92 365.29 252.68L365.29 252.68Q365.80 250.64 365.80 248.20L365.80 248.20Q365.80 245.52 365.29 243.66L365.29 243.66Q364.58 241.48 363.11 240.27Q361.64 239.05 359.53 239.05L359.53 239.05Q357.35 239.05 355.91 240.27Q354.47 241.48 353.83 243.66L353.83 243.66Q353.32 245.20 353.32 248.20L353.32 248.20Q353.32 251.08 353.77 252.68L353.77 252.68Q354.41 254.92 355.91 256.20Q357.42 257.48 359.59 257.48L359.59 257.48ZM409.83 240.20Q411.05 243.53 411.05 248.14L411.05 248.14Q411.05 252.56 409.96 255.88L409.96 255.88Q408.49 260.24 405.26 262.73Q402.02 265.23 397.61 265.23L397.61 265.23Q392.94 265.23 390.25 261.71L390.25 261.71Q390.12 261.58 389.99 261.61Q389.86 261.64 389.86 261.84L389.86 261.84L389.86 263.95Q389.86 264.27 389.64 264.49Q389.42 264.72 389.10 264.72L389.10 264.72L381.61 264.72Q381.29 264.72 381.06 264.49Q380.84 264.27 380.84 263.95L380.84 263.95L380.84 220.68Q380.84 220.36 381.06 220.14Q381.29 219.92 381.61 219.92L381.61 219.92L389.10 219.92Q389.42 219.92 389.64 220.14Q389.86 220.36 389.86 220.68L389.86 220.68L389.86 234.38Q389.86 234.57 389.99 234.64Q390.12 234.70 390.25 234.51L390.25 234.51Q392.74 231.31 397.35 231.31L397.35 231.31Q402.02 231.31 405.19 233.71Q408.36 236.11 409.83 240.20L409.83 240.20ZM400.36 254.73Q401.70 252.30 401.70 248.33L401.70 248.33Q401.70 243.92 400.17 241.55L400.17 241.55Q398.63 239.05 395.62 239.05L395.62 239.05Q392.81 239.05 391.34 241.55L391.34 241.55Q389.93 243.98 389.93 248.27L389.93 248.27Q389.93 252.56 391.21 254.73L391.21 254.73Q392.74 257.48 395.69 257.48L395.69 257.48Q398.82 257.48 400.36 254.73L400.36 254.73Z" data-element="company-name" data-text-path="" data-text="EpiJob" data-font-family="Barlow Bold" fill="#000000" fill-opacity="1"></path></g></g></svg>